<?xml version="1.0" encoding="UTF-8" standalone="no"?>
<svg
   xmlns:dc="http://purl.org/dc/elements/1.1/"
   xmlns:cc="http://creativecommons.org/ns#"
   xmlns:rdf="http://www.w3.org/1999/02/22-rdf-syntax-ns#"
   xmlns:svg="http://www.w3.org/2000/svg"
   xmlns="http://www.w3.org/2000/svg"
   xmlns:xlink="http://www.w3.org/1999/xlink"
   xmlns:sodipodi="http://sodipodi.sourceforge.net/DTD/sodipodi-0.dtd"
   xmlns:inkscape="http://www.inkscape.org/namespaces/inkscape"
   width="100px"
   height="100px"
   viewBox="0 0 100 100"
   version="1.1"
   id="svg18"
   sodipodi:docname="icon.svg"
   inkscape:version="0.92.2 5c3e80d, 2017-08-06">
  <metadata
     id="metadata22">
    <rdf:RDF>
      <cc:Work
         rdf:about="">
        <dc:format>image/svg+xml</dc:format>
        <dc:type
           rdf:resource="http://purl.org/dc/dcmitype/StillImage" />
        <dc:title>eclispe-che</dc:title>
      </cc:Work>
    </rdf:RDF>
  </metadata>
  <sodipodi:namedview
     pagecolor="#ffffff"
     bordercolor="#666666"
     borderopacity="1"
     objecttolerance="10"
     gridtolerance="10"
     guidetolerance="10"
     inkscape:pageopacity="0"
     inkscape:pageshadow="2"
     inkscape:window-width="2340"
     inkscape:window-height="1343"
     id="namedview20"
     showgrid="false"
     inkscape:pagecheckerboard="true"
     inkscape:zoom="16"
     inkscape:cx="65.678765"
     inkscape:cy="34.340769"
     inkscape:window-x="2580"
     inkscape:window-y="30"
     inkscape:window-maximized="0"
     inkscape:current-layer="layer1"
     showguides="false"
     inkscape:guide-bbox="true"
     inkscape:snap-bbox="true"
     inkscape:bbox-paths="true"
     inkscape:bbox-nodes="true"
     inkscape:snap-bbox-midpoints="true"
     inkscape:snap-bbox-edge-midpoints="true"
     inkscape:snap-grids="false">
    <inkscape:grid
       type="xygrid"
       id="grid4080" />
    <sodipodi:guide
       position="50,50"
       orientation="1,0"
       id="guide4086"
       inkscape:locked="false" />
    <sodipodi:guide
       position="50,50"
       orientation="0,1"
       id="guide4088"
       inkscape:locked="false" />
  </sodipodi:namedview>
  <!-- Generator: Sketch 45.2 (43514) - http://www.bohemiancoding.com/sketch -->
  <title
     id="title2">eclispe-che</title>
  <desc
     id="desc4">Created with Sketch.</desc>
  <defs
     id="defs7">
    <path
       d="M50.0004412,4.04252804e-14 C22.3871247,4.04252804e-14 0,22.3848726 0,49.9995588 C0,77.6133626 22.3871247,100 50.0004412,100 C77.6137577,100 100,77.6133626 100,49.9995588 C100,22.3848726 77.6128753,3.55271368e-14 50.0004412,4.04252804e-14 Z"
       id="path-1" />
  </defs>
  <g
     inkscape:groupmode="layer"
     id="layer1"
     inkscape:label="BACKGROUND">
    <g
       style="fill:#ffffff;fill-opacity:1;fill-rule:evenodd;stroke:none;stroke-width:1;stroke-opacity:1"
       id="Page-1">
      <g
         id="eclispe-che"
         style="fill:#ffffff;fill-opacity:1;stroke:none;stroke-opacity:1">
        <g
           id="path3023-path"
           style="fill:#ffffff;fill-opacity:1;stroke:none;stroke-opacity:1">
          <use
             xlink:href="#path-1"
             id="use9"
             style="fill:#ffffff;fill-opacity:1;fill-rule:evenodd;stroke:none;stroke-opacity:1"
             x="0"
             y="0"
             width="100%"
             height="100%" />
          <path
             d="M 50.000441,0.5 C 22.662621,0.5 0.5,22.661661 0.5,49.999559 0.5,77.337051 22.663098,99.5 50.000441,99.5 77.337613,99.5 99.5,77.337222 99.5,49.999559 99.5,22.661796 77.337514,0.5 50.000441,0.5 Z"
             id="path11"
             style="fill:#ffffff;fill-opacity:1;stroke:none;stroke-width:1;stroke-opacity:1"
             inkscape:connector-curvature="0" />
        </g>
      </g>
    </g>
    <g
       transform="matrix(0.25,0,0,0.25,57.82888,-7.74561)"
       id="g4084">
      <path
         d="m 74.038979,103.10504 c -0.561,0.1581 -1.8615,0.50745 -2.89,0.7769 -11.2659,2.9529 -17.20995,15.91625 -12.38535,27.013 0.2669,0.6137 0.48535,1.34555 0.48535,1.62605 0,0.4097 -3.78335,4.65715 -5.69415,6.392 -0.2329,0.21165 -6.5263,6.4668 -13.985049,13.90005 -7.4596,7.43325 -13.7955,13.515 -14.0811,13.515 -0.2856,0 -1.3362,-0.289 -2.3341,-0.64175 -6.81785,-2.4106 -10.6267,-2.2355 -16.9456,0.77775 -2.4582,1.17215 -6.98955,5.6695 -7.5837,7.52675 -0.17765,0.5542 -0.60945,1.32345 -0.95965,1.70935 -0.3502,0.3859 -0.63665,1.03615 -0.63665,1.445 0,0.40885 -0.3043,1.0472 -0.6766,1.4195 -0.75905,0.75905 -115.31015,1.037 -116.7305,0.28305 -0.34,-0.1802 -0.9163,-0.9673 -1.28095,-1.74845 -1.4501,-3.10675 -4.80845,-6.7065 -7.55565,-8.09965 -0.78455,-0.3978 -1.52915,-0.88315 -1.65495,-1.0795 -1.24185,-1.938 -15.10535,-2.0009 -16.77135,-0.0756 -0.187,0.2159 -1.05485,0.7361 -1.92865,1.156 -8.08265,3.8811 -11.79545,17.32385 -7.15275,25.891 1.1101,2.0485 1.2869,2.2933 3.02175,4.19135 7.1502,7.8234 21.51945,8.04355 28.3033,0.43265 0.66895,-0.75055 1.4841,-1.63965 1.81135,-1.97625 0.32725,-0.33575 0.595,-0.67915 0.595,-0.7633 0,-0.3281 2.516,-4.45315 2.86195,-4.69115 0.2023,-0.1394 8.17105,-0.1785 17.70805,-0.0867 21.4047,0.2057 22.4961,0.20485 64.09,-0.0162 39.4689,-0.2108 35.5674,-0.49045 37.6482,2.70385 1.03785,1.5929 2.2746,2.96565 3.43315,3.8114 0.9962,0.7259 2.0689,1.5504 2.38255,1.8309 0.58565,0.52275 2.686,1.4943 4.05025,1.87255 1.1645,0.32385 1.1254,-1.9312 1.02765,60.00745 l -0.0918,58.31 -2.78375,1.36 c -3.9865,1.9482 -8.94625,6.78895 -8.94625,8.73375 0,0.2159 -0.26435,0.6851 -0.5882,1.0421 -1.6133,1.78245 -2.23975,8.85615 -1.1543,13.0339 4.42935,17.04845 27.9157,19.7625 36.1998,4.182 0.4437,-0.8347 0.969,-1.81815 1.16705,-2.1845 1.61415,-2.99455 1.64475,-11.0109 0.0519,-13.75725 -0.1632,-0.2805 -0.7735,-1.479 -1.35745,-2.6639 -1.29795,-2.635 -4.49905,-5.96615 -7.28875,-7.58625 l -2.04,-1.18405 -0.0918,-59.1379 c -0.1003,-64.57365 -0.1955,-60.42225 1.40845,-61.2629 7.37035,-3.8675 12.01645,-13.17585 10.2765,-20.59125 -1.0642,-4.53475 -2.57805,-2.5364 16.201849,-21.38685 19.15985,-19.2321 17.96135,-18.19935 20.2045,-17.42415 2.3426,0.8092 7.8523,0.80325 10.3105,-0.011 19.759101,-6.54585 19.048501,-33.1058 -1.02,-38.1174 -3.35665,-0.8381 -4.90025,-0.94435 -6.63,-0.4573"
         id="path0"
         inkscape:connector-curvature="0"
         style="fill:#3685f4;fill-rule:evenodd;stroke:none;stroke-width:0.85000002" />
      <path
         d="m 72.45677,101.93621 c -0.40715,0.0799 -0.9231,0.36465 -1.14665,0.6341 -0.22355,0.26945 -0.6953,0.4896 -1.04805,0.4896 -1.45435,0 -6.4141,2.9087 -7.94495,4.6597 -0.374,0.42755 -1.25375,1.4025 -1.955,2.16665 -0.70125,0.76415 -1.275,1.6643 -1.275,2.00005 0,0.33575 -0.2142,0.78795 -0.47685,1.00555 -0.2618,0.2176 -0.5797,0.81005 -0.70635,1.31665 -0.1258,0.5066 -0.43775,1.3804 -0.69275,1.9414 -1.445,3.1807 -1.28265,9.2191 0.357,13.3178 1.22995,3.07615 1.65835,2.40975 -6.9411,10.79075 -2.1284,2.074 -4.4234,4.36305 -5.1,5.08555 -1.3022,1.3906 -2.18195,2.2695 -6.3087,6.2934 -1.4144,1.37955 -2.57125,2.62905 -2.57125,2.77695 0,0.1479 -0.15725,0.3213 -0.34935,0.38505 -0.19125,0.0637 -2.61885,2.3715 -5.39325,5.1289 -2.77525,2.75655 -5.25725,5.00905 -5.5165,5.0065 -0.71145,-0.008 -3.46035,-1.01405 -4.0052,-1.46625 -0.8058,-0.66895 -10.53235,-0.53805 -11.5957,0.15555 -0.4675,0.30515 -1.2648,0.6511 -1.77225,0.7684 -1.2869,0.29835 -4.624,2.34685 -6.04775,3.71195 -2.33665,2.2406 -3.45525,3.9372 -5.6474,8.56545 l -0.6443,1.36 -32.80915,0.0935 c -18.04465,0.051 -33.1534,0.0102 -33.57415,-0.0918 l -0.765,-0.18445 v -17.1326 -17.13345 l 2.49645,-1.36935 c 3.0226,-1.6592 6.5739,-5.04815 7.71545,-7.36185 0.4607,-0.935 1.0642,-1.9805 1.3413,-2.32305 2.0145,-2.49475 2.14285,-13.3875 0.18785,-15.86695 -0.22185,-0.2805 -0.85,-1.4195 -1.39655,-2.53215 -6.3291,-12.86815 -26.3483,-12.80695 -34.3689,0.1054 -3.1603,5.08895 -3.5173,15.58475 -0.65025,19.08675 0.23035,0.2805 0.7242,1.0455 1.09905,1.7 1.5011,2.62225 6.13275,6.84505 8.02995,7.32105 2.0315,0.51 1.9601,-0.19465 1.86405,18.54955 l -0.0884,17.1394 h -17.2941 -17.29325 l -1.21975,-2.3256 c -2.17005,-4.13695 -6.55945,-7.96875 -11.2013,-9.77925 -4.19305,-1.63455 -13.95275,-0.8806 -16.42795,1.26905 -0.2958,0.25585 -0.63325,0.4658 -0.75055,0.4658 -0.96815,0 -5.86925,4.5934 -6.89265,6.46 -0.35955,0.6545 -0.8279,1.4195 -1.04125,1.7 -0.2142,0.2805 -0.49555,0.8925 -0.6256,1.36 -0.1309,0.4675 -0.44285,1.309 -0.69445,1.87 -1.27755,2.8543 -1.29285,9.673 -0.0281,12.58 1.3158,3.02515 2.8475,5.8531 3.5989,6.64445 0.4675,0.493 1.25205,1.35745 1.7442,1.92185 0.9197,1.0557 6.6385,4.51945 7.47575,4.5288 0.2584,0.003 1.08205,0.22525 1.83005,0.4947 2.94015,1.05995 9.89485,0.5134 12.75,-1.0013 0.4675,-0.24735 1.6915,-0.87295 2.72,-1.38975 2.24825,-1.1305 6.09195,-4.95465 7.1264,-7.08985 0.4046,-0.8364 1.0438,-1.91165 1.4195,-2.3902 l 0.6834,-0.8687 h 16.48745 c 10.7151,0 16.7178,0.12325 17.14535,0.3519 0.64345,0.34425 0.6579,1.0761 0.65025,33.915 l -0.008,33.5631 -2.7166,1.53 c -2.8679,1.61585 -6.2458,4.7668 -7.3049,6.8153 -0.33405,0.646 -0.8772,1.5572 -1.20615,2.0247 -1.59375,2.2644 -2.33835,9.84385 -1.33535,13.6 0.2244,0.8415 0.4862,2.11395 0.5814,2.82795 l 0.1734,1.2988 -9.4724,9.51065 c -27.02405,27.13115 -23.84845,24.4052 -27.02575,23.1965 -3.54365,-1.34895 -10.8086,-0.7021 -14.5724,1.2971 -0.65195,0.34595 -1.3855,0.629 -1.62945,0.629 -1.0251,0 -6.09875,5.5777 -7.17145,7.8846 -3.876,8.33085 -2.72935,17.1496 2.98265,22.94575 14.9022,15.12065 39.2105,1.27245 33.7739,-19.2406 -0.91375,-3.4476 -2.11565,-1.9363 15.67315,-19.70895 19.10035,-19.08335 16.8555,-17.2703 20.281,-16.3829 4.4064,1.1424 11.89235,0.7565 13.8108,-0.71145 0.20655,-0.1581 1.12455,-0.6851 2.04,-1.1713 2.88405,-1.53 7.5701,-6.57305 7.6058,-8.1838 0.004,-0.2193 0.4046,-0.86955 0.8891,-1.445 l 0.87975,-1.04635 h 34.13345 34.13345 l 0.1853,0.765 c 0.10285,0.42075 0.14365,7.9526 0.0918,16.7365 l -0.0943,15.97235 -2.72,1.3566 c -4.7413,2.36555 -8.211,6.3223 -10.59185,12.07935 -0.89845,2.17515 -0.92225,11.16815 -0.0332,12.89705 0.32725,0.63665 0.595,1.34895 0.595,1.58185 0,0.4998 4.0409,6.6113 4.3707,6.6113 0.12495,0 0.61285,0.34425 1.08545,0.765 1.9074,1.7 5.236,3.655 6.22115,3.655 0.2669,0 0.9231,0.22865 1.4586,0.5083 3.1348,1.63455 13.83885,0.15215 16.7824,-2.32475 0.59075,-0.49725 1.18405,-0.90355 1.3175,-0.90355 0.2227,0 2.1947,-1.87935 3.74765,-3.57 0.3434,-0.374 0.9486,-1.32005 1.34555,-2.10205 0.39695,-0.782 0.86445,-1.51045 1.0387,-1.6184 1.64985,-1.01915 2.51685,-10.9174 1.3022,-14.86735 -1.48155,-4.8178 -6.38095,-10.829 -9.9229,-12.1754 -0.48365,-0.18445 -1.02935,-0.73015 -1.21295,-1.21295 -0.44625,-1.173 -0.44795,-32.10875 -0.003,-33.28175 l 0.3315,-0.8721 h 16.439 16.43985 l 0.73865,0.7871 c 0.40715,0.43265 0.7395,0.95285 0.7395,1.15515 0,0.78455 3.80885,5.18415 5.3482,6.1778 0.8925,0.57545 1.97115,1.3005 2.39785,1.6116 3.1365,2.2865 12.33265,3.383 15.504,1.8479 0.79475,-0.38505 1.62095,-0.69955 1.83685,-0.69955 0.78965,0 7.2131,-4.1888 7.2131,-4.7039 0,-0.12665 0.6885,-1.07015 1.53,-2.0961 0.8415,-1.02595 1.53,-2.0094 1.53,-2.18535 0,-0.17595 0.2924,-0.9418 0.6494,-1.70255 5.47995,-11.6722 -3.41955,-26.69085 -16.53335,-27.9021 -8.0104,-0.7395 -16.9388,4.38855 -19.8305,11.39 -1.207,2.92145 0.11815,2.72 -17.88825,2.72 -15.5431,0 -16.0854,-0.0221 -16.4254,-0.6579 -0.23545,-0.4403 -0.3519,-11.9357 -0.3519,-34.86615 v -34.20825 l 0.8993,-0.83385 c 0.49555,-0.459 1.04295,-0.83385 1.21805,-0.83385 0.4403,0 3.3422,-2.36555 4.1701,-3.4 0.37485,-0.4675 0.99535,-1.156 1.3804,-1.53 3.56575,-3.46545 5.6797,-13.05345 3.9525,-17.9299 -0.68255,-1.92695 -1.15855,-1.37785 16.7076,-19.23975 l 16.7739,-16.76965 3.88365,0.357 c 6.4787,0.59585 9.4945,0.079 13.7445,-2.35365 0.935,-0.5355 2.0077,-1.11775 2.3834,-1.29455 0.37655,-0.17595 1.29455,-1.0421 2.04,-1.9244 0.7463,-0.88145 1.63795,-1.93205 1.9822,-2.3341 4.4608,-5.20795 5.0932,-14.74495 1.4688,-22.151 -0.8432,-1.7221 -5.63125,-6.97 -6.3597,-6.97 -0.21845,0 -0.8109,-0.3485 -1.3175,-0.77435 -0.50575,-0.4267 -1.59885,-0.98345 -2.42845,-1.23845 -0.8296,-0.25585 -2.13095,-0.74885 -2.89085,-1.09565 -1.326,-0.60605 -6.90625,-0.8449 -9.21825,-0.39525 m 8.39035,1.258 c 20.0685,5.0116 20.7791,31.57155 1.02,38.1174 -2.4582,0.8143 -7.9679,0.82025 -10.3105,0.011 -2.24315,-0.7752 -1.04465,-1.80795 -20.2045,17.42415 -18.7799,18.85045 -17.26605,16.8521 -16.20185,21.38685 1.73995,7.4154 -2.90615,16.72375 -10.2765,20.59125 -1.60395,0.84065 -1.50875,-3.31075 -1.40845,61.2629 l 0.0918,59.1379 2.04,1.18405 c 2.7897,1.6201 5.9908,4.95125 7.28875,7.58625 0.58395,1.1849 1.19425,2.3834 1.35745,2.6639 1.5929,2.74635 1.5623,10.7627 -0.0519,13.75725 -0.19805,0.36635 -0.72335,1.3498 -1.16705,2.1845 -8.2841,15.5805 -31.77045,12.86645 -36.1998,-4.182 -1.08545,-4.17775 -0.459,-11.25145 1.1543,-13.0339 0.32385,-0.357 0.5882,-0.8262 0.5882,-1.0421 0,-1.9448 4.95975,-6.78555 8.94625,-8.73375 l 2.78375,-1.36 0.0918,-58.31 c 0.0978,-61.93865 0.13685,-59.6836 -1.02765,-60.00745 -1.36425,-0.37825 -3.4646,-1.3498 -4.05025,-1.87255 -0.31365,-0.2805 -1.38635,-1.105 -2.38255,-1.8309 -1.15855,-0.84575 -2.3953,-2.2185 -3.43315,-3.8114 -2.0808,-3.1943 1.8207,-2.91465 -37.6482,-2.70385 -41.5939,0.221 -42.6853,0.22185 -64.09,0.0162 -9.537,-0.0918 -17.50575,-0.0527 -17.70805,0.0867 -0.34595,0.238 -2.86195,4.36305 -2.86195,4.69115 0,0.0841 -0.26775,0.42755 -0.595,0.7633 -0.32725,0.3366 -1.1424,1.2257 -1.81135,1.97625 -6.78385,7.6109 -21.1531,7.39075 -28.3033,-0.43265 -1.73485,-1.89805 -1.91165,-2.14285 -3.02175,-4.19135 -4.6427,-8.56715 -0.9299,-22.0099 7.15275,-25.891 0.8738,-0.4199 1.74165,-0.9401 1.92865,-1.156 1.666,-1.92525 15.5295,-1.86235 16.77135,0.0756 0.1258,0.19635 0.8704,0.6817 1.65495,1.0795 2.7472,1.39315 6.10555,4.9929 7.55565,8.09965 0.36465,0.78115 0.94095,1.56825 1.28095,1.74845 1.42035,0.75395 115.97145,0.476 116.7305,-0.28305 0.3723,-0.3723 0.6766,-1.01065 0.6766,-1.4195 0,-0.40885 0.28645,-1.0591 0.63665,-1.445 0.3502,-0.3859 0.782,-1.15515 0.95965,-1.70935 0.59415,-1.85725 5.1255,-6.3546 7.5837,-7.52675 6.3189,-3.01325 10.12775,-3.18835 16.9456,-0.77775 0.9979,0.35275 2.0485,0.64175 2.3341,0.64175 0.2856,0 6.6215,-6.08175 14.0811,-13.515 7.45875,-7.43325 13.75215,-13.6884 13.98505,-13.90005 1.9108,-1.73485 5.69415,-5.9823 5.69415,-6.392 0,-0.2805 -0.21845,-1.01235 -0.48535,-1.62605 -4.8246,-11.09675 1.11945,-24.0601 12.38535,-27.013 1.0285,-0.26945 2.329,-0.6188 2.89,-0.7769 1.72975,-0.48705 3.27335,-0.3808 6.63,0.4573 m -84.52995,89.51095 c 1.1628,0.1921 1.4756,0.4675 2.63585,2.3188 1.8207,2.9019 7.4086,7.31595 9.26415,7.31595 1.62945,0 1.56995,-1.33365 1.56995,35.0166 0,18.6711 -0.0927,34.18955 -0.20655,34.48535 -0.18615,0.48535 -3.52325,0.53805 -34.2805,0.53805 h -34.0748 l -0.6902,-0.765 c -0.37995,-0.42075 -1.1339,-1.598 -1.6745,-2.61545 -1.07695,-2.02725 -4.4217,-5.54455 -6.0639,-6.3767 -0.57205,-0.2907 -1.76715,-0.99365 -2.65625,-1.56315 l -1.6167,-1.03615 0.0867,-33.337 0.0867,-33.33615 0.85,-0.4301 c 0.9112,-0.46155 64.0492,-0.66385 66.77005,-0.21505"
         id="path2"
         inkscape:connector-curvature="0"
         style="fill:#9ec5fc;fill-rule:evenodd;stroke:none;stroke-width:0.85000002" />
    </g>
  </g>
  <g
     inkscape:groupmode="layer"
     id="layer2"
     inkscape:label="PLACE LOGO HERE" />
</svg>
